<svg width="200" height="200" viewBox="0 0 200 200" xmlns="http://www.w3.org/2000/svg">
  <!-- Background circle -->
  <circle cx="100" cy="100" r="100" fill="#8B4513" stroke="#654321" stroke-width="4"/>
  
  <!-- Face -->
  <ellipse cx="100" cy="90" rx="60" ry="50" fill="#FDBCB4"/>
  
  <!-- Hair -->
  <path d="M 40 70 Q 50 40 100 45 Q 150 40 160 70 Q 155 50 100 50 Q 45 50 40 70" fill="#8B4513"/>
  
  <!-- Eyes -->
  <ellipse cx="80" cy="80" rx="8" ry="6" fill="#000"/>
  <ellipse cx="120" cy="80" rx="8" ry="6" fill="#000"/>
  <circle cx="82" cy="78" r="2" fill="#FFF"/>
  <circle cx="122" cy="78" r="2" fill="#FFF"/>
  
  <!-- Eyebrows -->
  <path d="M 70 70 Q 80 65 90 70" stroke="#654321" stroke-width="3" fill="none"/>
  <path d="M 110 70 Q 120 65 130 70" stroke="#654321" stroke-width="3" fill="none"/>
  
  <!-- Nose -->
  <ellipse cx="100" cy="95" rx="3" ry="5" fill="#F4A460"/>
  
  <!-- Mouth -->
  <path d="M 90 110 Q 100 120 110 110" stroke="#8B4513" stroke-width="2" fill="none"/>
  
  <!-- Chin line -->
  <path d="M 85 115 Q 100 125 115 115" stroke="#E6A085" stroke-width="1" fill="none"/>
</svg>